<svg xmlns="http://www.w3.org/2000/svg" version="1.1" xmlns:xlink="http://www.w3.org/1999/xlink" xmlns:svgjs="http://svgjs.dev/svgjs" width="1000" height="658" viewBox="0 0 1000 658"><g transform="matrix(1,0,0,1,0.28936128831173846,0.266396761133592)"><svg viewBox="0 0 375 247" data-background-color="#ffffff" preserveAspectRatio="xMidYMid meet" height="658" width="1000" xmlns="http://www.w3.org/2000/svg" xmlns:xlink="http://www.w3.org/1999/xlink"><g id="tight-bounds" transform="matrix(1,0,0,1,-0.10851048311690192,-0.09999999999999432)"><svg viewBox="0 0 375.2170209662338 247.2" height="247.2" width="375.2170209662338"><g><svg viewBox="0 0 375.2170209662338 247.2" height="247.2" width="375.2170209662338"><g transform="matrix(1,0,0,1,179.38325473246752,0)"><svg viewBox="0 0 195.83376623376626 247.2" height="247.2" width="195.83376623376626"><g id="textblocktransform"><svg viewBox="0 0 195.83376623376626 247.2" height="247.2" width="195.83376623376626" id="textblock"><g><svg viewBox="0 0 195.83376623376626 247.2" height="247.2" width="195.83376623376626"><g transform="matrix(1,0,0,1,0,0)"><svg width="195.83376623376626" viewBox="2.95 -34.65 27.45 34.65" height="247.2" data-palette-color="url(#9c31ecb7-82d1-4517-8d07-ca6aff4aaed2)"></svg></g></svg></g></svg></g></svg></g><g transform="matrix(1,0,0,1,0,63.084388901411344)"><svg viewBox="0 0 121.02526753246752 121.0312221971773" height="121.0312221971773" width="121.02526753246752"><g><svg xmlns="http://www.w3.org/2000/svg" xmlns:xlink="http://www.w3.org/1999/xlink" version="1.1" x="0" y="0" viewBox="0.35833249999999595 0.3587183000000067 89.28326340000001 89.2876563" enable-background="new 0 0 90 90" xml:space="preserve" height="121.0312221971773" width="121.02526753246752" class="icon-icon-0" data-fill-palette-color="accent" id="icon-0"><polygon points="57.928,58.169 57.875,76.027 45.397,63.548 45.397,45.639 " fill="#a183ee" data-fill-palette-color="accent"></polygon><polygon points="76.027,57.875 58.475,57.927 45.826,45.279 63.432,45.279 " fill="#a183ee" data-fill-palette-color="accent"></polygon><polygon points="76.027,32.125 63.432,44.721 45.707,44.721 58.355,32.073 " fill="#a183ee" data-fill-palette-color="accent"></polygon><polygon points="44.838,45.59 44.838,63.314 32.125,76.027 32.074,58.355 " fill="#a183ee" data-fill-palette-color="accent"></polygon><polygon points="57.928,31.712 45.397,44.243 45.397,26.452 57.875,13.974 " fill="#a183ee" data-fill-palette-color="accent"></polygon><polygon points="44.838,26.687 44.838,44.291 32.074,31.526 32.125,13.974 " fill="#a183ee" data-fill-palette-color="accent"></polygon><polygon points="44.479,44.721 26.569,44.721 13.974,32.125 31.832,32.073 " fill="#a183ee" data-fill-palette-color="accent"></polygon><polygon points="44.36,45.279 31.712,57.927 13.974,57.875 26.569,45.279 " fill="#a183ee" data-fill-palette-color="accent"></polygon><rect x="58.48" y="58.48" width="18.049" height="18.049" fill="#a183ee" data-fill-palette-color="accent"></rect><polygon points="76.527,13.474 76.527,31.516 58.914,31.516 58.912,31.518 58.484,31.516 58.484,13.474 " fill="#a183ee" data-fill-palette-color="accent"></polygon><polygon points="31.518,30.971 31.516,31.516 13.474,31.516 13.474,13.474 31.516,13.474 31.516,30.968 " fill="#a183ee" data-fill-palette-color="accent"></polygon><rect x="13.471" y="58.48" width="18.05" height="18.049" fill="#a183ee" data-fill-palette-color="accent"></rect><rect x="67.864" y="35.981" transform="matrix(0.7071 -0.7071 0.7071 0.7071 -9.3022 67.5465)" width="18.042" height="18.042" fill="#a183ee" data-fill-palette-color="accent"></rect><rect x="35.979" y="4.094" transform="matrix(0.7071 -0.7071 0.7071 0.7071 3.9068 35.6621)" width="18.042" height="18.042" fill="#a183ee" data-fill-palette-color="accent"></rect><rect x="4.095" y="35.98" transform="matrix(0.7071 -0.7071 0.7071 0.7071 -27.9787 22.4536)" width="18.041" height="18.041" fill="#a183ee" data-fill-palette-color="accent"></rect><rect x="35.98" y="67.865" transform="matrix(0.7071 -0.7071 0.7071 0.7071 -41.1877 54.3437)" width="18.04" height="18.041" fill="#a183ee" data-fill-palette-color="accent"></rect></svg></g></svg></g></svg></g><defs></defs><mask id="01ad2a39-89c1-4984-890a-1d0329698aa5"><g id="SvgjsG1038"><svg viewBox="0 0 375.2170209662338 247.2" height="247.2" width="375.2170209662338"><g><svg viewBox="0 0 375.2170209662338 247.2" height="247.2" width="375.2170209662338"><g transform="matrix(1,0,0,1,179.38325473246752,0)"><svg viewBox="0 0 195.83376623376626 247.2" height="247.2" width="195.83376623376626"><g id="SvgjsG1037"><svg viewBox="0 0 195.83376623376626 247.2" height="247.2" width="195.83376623376626" id="SvgjsSvg1036"><g><svg viewBox="0 0 195.83376623376626 247.2" height="247.2" width="195.83376623376626"><g transform="matrix(1,0,0,1,0,0)"><svg width="195.83376623376626" viewBox="2.95 -34.65 27.45 34.65" height="247.2" data-palette-color="url(#9c31ecb7-82d1-4517-8d07-ca6aff4aaed2)"><path d="M11.15 0L2.95 0 2.95-34.65 11.15-34.65 11.15 0ZM11.4-18.5L20.85-34.65 29.45-34.65 19.65-19.1 30.4 0 20.95 0 11.4-18.5Z" opacity="1" transform="matrix(1,0,0,1,0,0)" fill="white" class="wordmark-text-0" id="SvgjsPath1035"></path></svg></g></svg></g></svg></g></svg></g><g transform="matrix(1,0,0,1,0,63.084388901411344)"><svg viewBox="0 0 121.02526753246752 121.0312221971773" height="121.0312221971773" width="121.02526753246752"><g><svg xmlns="http://www.w3.org/2000/svg" xmlns:xlink="http://www.w3.org/1999/xlink" version="1.1" x="0" y="0" viewBox="0.35833249999999595 0.3587183000000067 89.28326340000001 89.2876563" enable-background="new 0 0 90 90" xml:space="preserve" height="121.0312221971773" width="121.02526753246752" class="icon-icon-0" data-fill-palette-color="accent" id="SvgjsSvg1034"></svg></g></svg></g></svg></g><defs><mask></mask></defs></svg></g></mask><linearGradient x1="0" x2="1" y1="0.578" y2="0.595" id="9c31ecb7-82d1-4517-8d07-ca6aff4aaed2"><stop stop-color="#6ee2f5" offset="0"></stop><stop stop-color="#6454f0" offset="1"></stop></linearGradient><rect width="375.2170209662338" height="247.2" fill="url(#9c31ecb7-82d1-4517-8d07-ca6aff4aaed2)" mask="url(#01ad2a39-89c1-4984-890a-1d0329698aa5)" data-fill-palette-color="primary"></rect></svg><rect width="375.2170209662338" height="247.2" fill="none" stroke="none" visibility="hidden"></rect></g></svg></g></svg>